FILE "Akazukin Cha Cha - Osawagase! Panic Race! (1996)(NEC Home Electronics)(JP)[FXNHE630].img" BINARY
  TRACK 01 AUDIO
    INDEX 01 00:00:00
  TRACK 02 MODE1/2352
    PREGAP 00:03:00
    INDEX 01 01:04:63
  TRACK 03 AUDIO
    PREGAP 00:02:00
    INDEX 01 45:03:57
  TRACK 04 AUDIO
    INDEX 01 45:58:36
  TRACK 05 AUDIO
    INDEX 01 46:32:74
  TRACK 06 AUDIO
    INDEX 01 48:06:43
